<svg width="86" height="86" viewBox="0 0 86 86" fill="none" xmlns="http://www.w3.org/2000/svg">
<rect x="0.5" y="0.5" width="84.4318" height="84.4318" rx="19.8409" stroke="#E2E2E2"/>
<path d="M59.553 16.1018L58.424 14.4095L61.0226 12.6775V12.2045H60.2456C59.7516 12.2035 59.2673 12.3408 58.8474 12.6009C58.4274 12.861 58.0888 13.2335 57.8697 13.6762L56.0391 12.767C56.4278 11.9846 57.0279 11.3267 57.7714 10.8678C58.5148 10.4089 59.3719 10.1673 60.2456 10.1704H62.0396C62.3094 10.1704 62.5681 10.2776 62.7588 10.4683C62.9495 10.6591 63.0567 10.9177 63.0567 11.1875V13.2216C63.0567 13.389 63.0154 13.5538 62.9365 13.7014C62.8575 13.849 62.7433 13.9749 62.6041 14.0678L59.553 16.1018Z" fill="black"/>
<path d="M45.6749 26.4434C44.9177 26.4463 44.1869 26.1655 43.6265 25.6563C43.2425 25.3061 42.9648 24.855 42.8251 24.3544L41.7348 20.3493C41.7114 20.2624 41.6994 20.1728 41.6992 20.0828V19.8133C41.7159 18.9989 42.0097 18.2145 42.5319 17.5895C43.0542 16.9644 43.7739 16.5359 44.5724 16.3747C45.6016 16.1393 46.6823 16.3222 47.5767 16.8832C47.975 17.1297 48.32 17.4533 48.5915 17.8349C48.8631 18.2165 49.0558 18.6484 49.1582 19.1055L49.8132 22.1088C49.8278 22.1801 49.8353 22.2527 49.8356 22.3254V23.2906C49.8254 23.8914 49.6221 24.4729 49.2558 24.9491C48.8894 25.4253 48.3795 25.771 47.8015 25.9349L46.5902 26.3061C46.2936 26.3973 45.9851 26.4436 45.6749 26.4434ZM43.7333 19.9466L44.788 23.8185C44.8262 23.9493 44.9002 24.067 45.0016 24.1581C45.1354 24.2735 45.2964 24.3527 45.4694 24.3883C45.6424 24.4239 45.8217 24.4147 45.9901 24.3616L47.2025 23.9903C47.3636 23.9524 47.5086 23.8641 47.6163 23.7383C47.724 23.6125 47.7888 23.4557 47.8015 23.2906V22.4363L47.1699 19.5397C47.1245 19.3458 47.0407 19.163 46.9235 19.0019C46.8063 18.8409 46.658 18.7049 46.4875 18.602C46.0516 18.3319 45.5265 18.2452 45.027 18.361C44.6789 18.4212 44.3615 18.5975 44.1266 18.8613C43.8916 19.125 43.753 19.4606 43.7333 19.8133V19.9466Z" fill="black"/>
<path d="M48.3101 19.9342L47.2931 18.1737C47.4476 18.0845 47.5759 17.9562 47.6651 17.8018C47.7544 17.6473 47.8014 17.4721 47.8016 17.2937C47.8017 17.1153 47.7549 16.94 47.6659 16.7854C47.5769 16.6308 47.4487 16.5023 47.2944 16.4129C47.14 16.3235 46.9648 16.2762 46.7864 16.2759C46.608 16.2756 46.4327 16.3222 46.278 16.411C46.1233 16.4999 45.9947 16.6278 45.9051 16.7821C45.8155 16.9364 45.768 17.1115 45.7675 17.2899H43.7334C43.7337 16.7544 43.875 16.2284 44.143 15.7648C44.411 15.3012 44.7963 14.9163 45.2602 14.6488C45.7241 14.3812 46.2503 14.2405 46.7858 14.2407C47.3213 14.2409 47.8473 14.3821 48.3109 14.65C48.7746 14.9179 49.1596 15.3031 49.4273 15.7669C49.6949 16.2307 49.8358 16.7568 49.8357 17.2923C49.8356 17.8279 49.6946 18.3539 49.4268 18.8176C49.159 19.2814 48.7739 19.6665 48.3101 19.9342Z" fill="black"/>
<path d="M52.8864 41.6991C52.7018 41.699 52.5208 41.6488 52.3626 41.5536L47.2774 38.5025C47.0588 38.3708 46.8978 38.1617 46.8262 37.9168C46.7546 37.6719 46.7777 37.409 46.8909 37.1804L47.5804 35.8012L44.454 32.6748L30.79 36.5742C30.5459 36.6448 30.2841 36.6208 30.0568 36.5071L28.0227 35.49C27.852 35.4041 27.7089 35.2718 27.6099 35.1084C27.511 34.9449 27.46 34.7568 27.463 34.5658C27.466 34.3747 27.5227 34.1883 27.6268 34.028C27.7308 33.8677 27.8779 33.7399 28.0511 33.6593L41.2727 27.5571C41.3306 27.5305 41.3909 27.5093 41.4527 27.494L45.0673 26.5909L45.8738 24.9748L47.6944 25.884L46.6773 27.9181C46.6116 28.0495 46.5182 28.165 46.4035 28.2569C46.2889 28.3487 46.1557 28.4146 46.0132 28.45L42.0386 29.4437L31.7735 34.173L44.4713 30.5462C44.6456 30.4964 44.8299 30.4942 45.0053 30.5396C45.1807 30.585 45.3408 30.6765 45.4691 30.8045L49.5372 34.8727C49.6882 35.0235 49.7879 35.218 49.8222 35.4287C49.8566 35.6393 49.8237 35.8554 49.7284 36.0463L49.1325 37.2383L52.2761 39.128L53.9034 33.4203V31.4879C53.9033 31.3353 53.8689 31.1847 53.8027 31.0472C53.7365 30.9097 53.6403 30.7889 53.521 30.6936L49.1996 27.2357C49.0465 27.1133 48.9324 26.9489 48.8711 26.7628L47.854 23.7116L49.7864 23.0688L50.7089 25.8352L54.7964 29.105C55.1541 29.3906 55.4426 29.7533 55.6402 30.1662C55.8378 30.579 55.9394 31.0313 55.9375 31.489V33.5627C55.9374 33.6573 55.9244 33.7514 55.8989 33.8424L53.8648 40.9617C53.804 41.1743 53.6756 41.3612 53.499 41.4943C53.3225 41.6273 53.1074 41.6992 52.8864 41.6991Z" fill="black"/>
<path d="M53.7685 28.9859L52.0029 27.9688L56.0212 20.937L57.8234 15.5263L57.2966 14.9984L54.8374 20.7376C54.8134 20.795 54.7837 20.8498 54.7489 20.9014L52.7148 23.9525L51.0225 22.8236L53.0047 19.8497L56.0192 12.8148C56.0847 12.6621 56.1866 12.5278 56.3161 12.4236C56.4455 12.3194 56.5985 12.2485 56.7616 12.2171C56.9248 12.1857 57.0932 12.1947 57.252 12.2434C57.4109 12.2921 57.5554 12.379 57.6729 12.4965L59.707 14.5306C59.8404 14.6642 59.934 14.8323 59.9773 15.016C60.0206 15.1998 60.0119 15.3919 59.9521 15.571L57.918 21.6733C57.8976 21.7371 57.8704 21.7985 57.8367 21.8564L53.7685 28.9859Z" fill="black"/>
<path d="M27.4602 39.6649C27.1905 39.6648 26.9318 39.5576 26.7412 39.3669L26.2387 38.8645L25.4749 39.2408C25.428 39.264 25.3794 39.2837 25.3295 39.2997C24.824 39.4634 24.2772 39.4455 23.7834 39.249C23.2897 39.0526 22.8801 38.69 22.6252 38.2237C22.4833 37.9574 22.3999 37.6639 22.3804 37.3628C22.3609 37.0616 22.4059 36.7598 22.5123 36.4774C22.6252 36.1823 22.8 35.9147 23.0249 35.6926C23.2498 35.4705 23.5196 35.2991 23.8161 35.1899L28.1294 33.6216L28.8251 35.5336L24.5199 37.0999C24.4971 37.1076 24.4763 37.1202 24.4587 37.1367C24.4412 37.1532 24.4274 37.1732 24.4182 37.1955C24.4314 37.2517 24.4654 37.3007 24.5133 37.3328C24.5613 37.3649 24.6196 37.3776 24.6766 37.3684L25.9987 36.7185C26.1892 36.6249 26.4041 36.5931 26.6135 36.6278C26.8229 36.6624 27.0162 36.7617 27.1663 36.9117L27.4643 37.2097L29.7994 34.8776L31.2375 36.3157L28.1864 39.3669C28.0911 39.4622 27.9779 39.5376 27.8532 39.5887C27.7285 39.6399 27.595 39.6658 27.4602 39.6649Z" fill="black"/>
<path d="M62.0394 50.8518H53.903C53.7021 50.8515 53.5058 50.7921 53.3385 50.6809L50.7023 48.9194L48.1221 49.7778C47.9106 49.8484 47.6817 49.8475 47.4708 49.7753C47.2598 49.7031 47.0784 49.5635 46.9545 49.3781L45.3181 46.923L41.9446 47.7661C41.7623 47.8124 41.5707 47.8073 41.3912 47.7513C41.2116 47.6952 41.0511 47.5905 40.9275 47.4488L33.8082 39.3124C33.6807 39.1649 33.5982 38.9838 33.5707 38.7908C33.5432 38.5977 33.5718 38.4008 33.653 38.2235C33.7343 38.0463 33.8648 37.8961 34.0289 37.7909C34.1931 37.6857 34.3841 37.6299 34.5791 37.6302H44.5848L47.4793 36.665L48.1221 38.5974L47.044 38.9564L51.157 41.6984H51.8689V40.6814C51.8689 40.4116 51.9761 40.1529 52.1668 39.9622C52.3575 39.7715 52.6162 39.6643 52.8859 39.6643C57.422 39.6643 62.378 48.3499 62.9283 49.3415C63.0141 49.4963 63.0581 49.6708 63.0558 49.8478C63.0535 50.0248 63.0051 50.1981 62.9153 50.3506C62.8256 50.5032 62.6975 50.6296 62.5439 50.7175C62.3903 50.8054 62.2164 50.8517 62.0394 50.8518ZM54.2081 48.8177H60.2483C58.5194 46.0717 55.9595 42.8344 53.8999 41.9384V42.7154C53.8999 42.9852 53.7928 43.2439 53.6021 43.4346C53.4113 43.6253 53.1526 43.7325 52.8829 43.7325H50.8519C50.651 43.7322 50.4547 43.6727 50.2874 43.5616L44.4445 39.6643H36.8166L42.0514 45.6466L45.5164 44.78C45.7198 44.7293 45.9339 44.7426 46.1294 44.8181C46.325 44.8937 46.4924 45.0278 46.6087 45.2021L48.2075 47.6074L50.5223 46.8365C50.6691 46.7867 50.8254 46.7714 50.9791 46.7918C51.1327 46.8123 51.2796 46.868 51.4082 46.9545L54.2081 48.8177Z" fill="black"/>
<path d="M47.5026 34.2814L46.0645 32.8433L49.1156 29.7922C49.2491 29.6586 49.4171 29.5648 49.6009 29.5214C49.7846 29.4779 49.9769 29.4864 50.156 29.546L52.3701 30.2844L52.9926 29.0396L54.8131 29.9488L53.796 31.9829C53.6863 32.2017 53.5013 32.3735 53.2751 32.4669C53.0489 32.5603 52.7965 32.569 52.5644 32.4914L50.1103 31.6727L47.5026 34.2814Z" fill="black"/>
<path d="M46.8551 40.3027L44.8232 45.3906L46.7129 46.1453L48.7448 41.0573L46.8551 40.3027Z" fill="black"/>
<path d="M51.8691 42.7158H49.835V47.801H51.8691V42.7158Z" fill="black"/>
<path d="M57.0261 50.2135C57.0078 50.1657 55.0693 45.3937 52.3213 43.562L53.4502 41.8696C56.7261 44.0532 58.8273 49.2381 58.9158 49.4578L57.0261 50.2135Z" fill="black"/>
<path d="M39.1026 44.6486L38.1934 42.8281C38.4517 42.6948 44.5468 39.665 47.8014 39.665V41.6991C45.4947 41.6991 40.7411 43.8248 39.1026 44.6486Z" fill="black"/>
<path d="M48.6348 75.2612C47.8641 75.1971 47.1446 74.8497 46.615 74.2863C46.0853 73.7228 45.7831 72.9832 45.7667 72.2101V68.4938L44.7588 60.8721C44.7527 60.8279 44.7496 60.7834 44.7497 60.7388V54.0335L42.6729 46.0222L44.6419 45.5137L46.7512 53.65C46.7725 53.7328 46.7835 53.8178 46.7837 53.9033V60.6717L47.7916 68.2924C47.7978 68.3366 47.8008 68.3811 47.8008 68.4257V72.2101C47.8008 72.6281 48.292 73.2271 48.6348 73.2271C48.7969 73.2321 48.9558 73.1816 49.0852 73.0839C49.2147 72.9863 49.3069 72.8473 49.3467 72.6901L49.7006 70.9785C49.9332 69.8587 49.8658 68.6974 49.5054 67.612L48.947 66.595C48.8635 66.4461 48.819 66.2785 48.8178 66.1078V56.0004L47.8089 47.9271L49.8267 47.6749L50.8438 55.8113C50.849 55.8531 50.8518 55.8952 50.8519 55.9374V65.8454L51.3279 66.7079C51.3566 66.7584 51.3804 66.8115 51.3991 66.8665C51.9019 68.3211 52.0027 69.8843 51.691 71.3914L51.3371 73.1031C51.2013 73.7175 50.859 74.2669 50.3672 74.6596C49.8755 75.0523 49.2641 75.2647 48.6348 75.2612Z" fill="black"/>
<path d="M52.0136 48.3241L48.959 53.4072L50.7025 54.455L53.7571 49.3718L52.0136 48.3241Z" fill="black"/>
<path d="M44.489 75.2617C43.7493 75.2612 43.04 74.9671 42.5169 74.4441C41.9939 73.921 41.6998 73.2117 41.6992 72.472V67.1254C41.6991 66.9676 41.7356 66.812 41.806 66.6708L43.3316 63.6196L45.1521 64.5289L43.7333 67.3654V72.472C43.7327 72.652 43.7964 72.8262 43.9128 72.9634C44.0292 73.1007 44.1908 73.1918 44.3685 73.2205C44.5462 73.2492 44.7282 73.2135 44.8819 73.1199C45.0357 73.0264 45.1509 72.881 45.207 72.71L45.8172 70.8722L47.7496 71.515L47.1394 73.3538C46.9545 73.9102 46.5988 74.3941 46.123 74.7367C45.6471 75.0792 45.0753 75.263 44.489 75.2617Z" fill="black"/>
</svg>
