<svg width="16" height="14" viewBox="0 0 16 14" fill="none" xmlns="http://www.w3.org/2000/svg">
<g clip-path="url(#clip0_1_289)">
<path d="M1.4128 0.016092C1.4192 0.0257471 1.4544 0.0691954 1.488 0.111034C1.7328 0.403908 1.9168 0.88023 2.016 1.48046C2.0816 1.87471 2.0848 1.99862 2.0848 3.50161V4.90161H1.416C0.8048 4.90161 0.7344 4.89839 0.6144 4.87425C0.4256 4.83402 0.2304 4.72621 0.0992 4.58782C-0.0048 4.47678 -0.0016 4.47035 0.0048 4.80667C0.0128 5.08506 0.016 5.11563 0.056 5.2669C0.12 5.50667 0.208 5.68529 0.3408 5.8446C0.5216 6.06345 0.7056 6.18575 0.968 6.26782C1.024 6.28391 1.1424 6.29035 1.5616 6.29356L2.0848 6.30161V6.99839V7.69678L1.3472 7.69195L0.6064 7.68713L0.4784 7.63563C0.3264 7.57448 0.2576 7.52943 0.1088 7.39586L0 7.2977L0.0064 7.60506C0.0144 7.88989 0.016 7.92207 0.056 8.0669C0.1952 8.57862 0.5312 8.94391 0.9744 9.06299C1.0848 9.09356 1.128 9.09517 1.5904 9.10161L2.0848 9.10805V10.5499C2.0848 11.4205 2.08 12.0625 2.072 12.172C2.064 12.2717 2.0384 12.4584 2.016 12.5887C1.912 13.189 1.7248 13.6412 1.456 13.934L1.4016 13.9936H4.1072C5.7248 13.9936 6.9344 13.9871 7.112 13.9791C7.424 13.963 8.12 13.8938 8.2768 13.86C8.3264 13.8503 8.4192 13.8359 8.48 13.8262C8.6096 13.8069 8.824 13.7618 9.1328 13.683C9.568 13.5736 9.9648 13.4368 10.3536 13.263C10.4752 13.2083 10.824 13.0297 10.9168 12.9733C10.9664 12.9444 11.0256 12.909 11.048 12.8977C11.1104 12.8639 11.2144 12.7963 11.3664 12.6869C11.4416 12.6322 11.5168 12.5791 11.5328 12.5678C11.6 12.5228 11.832 12.328 11.9376 12.2299C12.3392 11.8582 12.6752 11.4446 12.936 11.0021C12.9728 10.9377 13.0208 10.8572 13.0416 10.8234C13.0944 10.7333 13.312 10.2828 13.3328 10.2152C13.3424 10.1846 13.3552 10.1524 13.3616 10.146C13.4032 10.0913 13.6432 9.33172 13.672 9.16598C13.6816 9.11287 13.6864 9.10483 13.7264 9.09678C13.752 9.09195 14.1248 9.09196 14.5552 9.09517C15.416 9.10161 15.416 9.10161 15.6064 9.19012C15.7136 9.24 15.7456 9.26253 15.864 9.37035C16.0192 9.51035 16.0048 9.53287 15.9952 9.18207C15.9888 8.97609 15.9808 8.84897 15.9664 8.79747C15.912 8.59954 15.8992 8.5577 15.8512 8.45793C15.6944 8.11356 15.432 7.86736 15.096 7.74989L14.9648 7.70161L14.4304 7.69517L13.8976 7.68713L13.904 7.49885C13.9104 7.25104 13.9104 6.76023 13.9024 6.50759L13.896 6.30483L14.6096 6.30161C15.2208 6.29839 15.3344 6.30161 15.4016 6.31931C15.6032 6.37563 15.7392 6.45287 15.9056 6.60575L15.9984 6.69264V6.45448C15.9984 6.17127 15.984 6.04575 15.9264 5.85908C15.8128 5.48092 15.5888 5.19931 15.2688 5.02552C15.0608 4.91287 15.048 4.90966 14.3328 4.90483C13.9136 4.90161 13.6944 4.89517 13.6832 4.88552C13.6736 4.87586 13.6656 4.85977 13.6656 4.8469C13.6656 4.83402 13.6416 4.73264 13.6096 4.62322C13.2352 3.29241 12.536 2.23517 11.5136 1.45149C11.3744 1.34368 11.0336 1.11678 10.896 1.03954C10.8432 1.00897 10.7856 0.976782 10.7712 0.967127C10.704 0.930115 10.3184 0.74023 10.2224 0.7C10.1648 0.674253 10.0896 0.642069 10.056 0.629195C9.4912 0.382989 8.544 0.149655 7.8208 0.0772414C7.7024 0.065977 7.5456 0.0482759 7.4736 0.0418391C7.1472 0.00482759 6.6944 0 4.1232 0C1.9504 0 1.4048 0.00482759 1.4128 0.016092ZM6.704 0.712874C7.2448 0.745058 7.5776 0.786897 7.9664 0.881839C9.1536 1.16506 9.9888 1.76368 10.5952 2.7646C10.6512 2.85793 10.888 3.34391 10.9232 3.44207C11.0912 3.89747 11.1728 4.16782 11.2448 4.52506C11.2624 4.61195 11.2864 4.72782 11.2976 4.78253C11.3088 4.83563 11.3136 4.88552 11.3088 4.89035C11.3008 4.89678 9.6944 4.9 7.736 4.89839L4.176 4.89517L4.1712 2.82736C4.1696 1.69126 4.1712 0.746667 4.176 0.728966L4.1824 0.698391H5.32C5.944 0.698391 6.568 0.704828 6.704 0.712874ZM11.464 6.34989C11.4752 6.41908 11.4752 7.59379 11.464 7.65172L11.4544 7.69517L7.8144 7.69195L4.176 7.68713L4.1728 7.00483C4.1696 6.62989 4.1728 6.3177 4.176 6.31127C4.1808 6.30322 5.7312 6.29839 7.8192 6.29839H11.4544L11.464 6.34989ZM11.3008 9.11287C11.3088 9.13701 11.2704 9.33494 11.192 9.65678C11.1024 10.0189 10.9808 10.3841 10.8576 10.6545C10.7968 10.7929 10.6448 11.0922 10.608 11.1485C10.5904 11.1743 10.5392 11.2563 10.4944 11.3287C10.2064 11.7825 9.7952 12.1961 9.3264 12.5018C9.1552 12.6113 8.8032 12.7979 8.7088 12.8269C8.6896 12.8317 8.6688 12.8414 8.6608 12.8478C8.6496 12.8575 8.504 12.9122 8.3344 12.9733C8.0224 13.0844 7.4288 13.2051 6.952 13.2549C6.6432 13.2855 6.5936 13.2871 5.4048 13.2871H4.1744V11.2V9.11127L7.7088 9.10483C9.6528 9.10161 11.2544 9.09678 11.2672 9.09356C11.2816 9.09195 11.296 9.10161 11.3008 9.11287Z" fill="black"/>
</g>
<defs>
<clipPath id="clip0_1_289">
<rect width="16" height="14" fill="white"/>
</clipPath>
</defs>
</svg>
