<svg width="13" height="13" viewBox="0 0 13 13" fill="none" xmlns="http://www.w3.org/2000/svg">
<path d="M12.7725 8.41154L10.7077 8.97217L11.2678 11.037L10.2223 11.3208L9.57883 8.94888L8.51554 8.3395L6.92792 9.256V10.4856L8.66504 12.2222L7.89913 12.9881L6.38625 11.4758L4.87337 12.9886L4.10746 12.2222L5.84458 10.4856V9.256L4.25696 8.3395L3.19367 8.94888L2.55017 11.3208L1.50475 11.037L2.06483 8.97217L0 8.41154L0.283292 7.36667L2.65471 8.00963L3.67792 7.423V5.56617L2.65471 4.979L0.283292 5.62196L0 4.57654L2.06483 4.017L1.50475 1.95217L2.55017 1.66833L3.19367 4.03975L4.16542 4.59713L5.84458 3.62754V2.50304L4.10746 0.765917L4.87337 0L6.38625 1.51288L7.89913 0L8.66504 0.765917L6.92792 2.50304V3.62754L8.60708 4.59713L9.58208 4.03975L10.225 1.66833L11.2705 1.95217L10.7077 4.017L12.7725 4.57654L12.4892 5.62196L10.1178 4.979L9.09458 5.56563V7.423L10.1178 8.00963L12.4892 7.36667L12.7725 8.41154Z" fill="black"/>
</svg>
