<svg width="80" height="80" viewBox="0 0 80 80" fill="none" xmlns="http://www.w3.org/2000/svg">
<g filter="url(#filter0_d_2_2558)">
<rect x="8" y="7" width="64" height="64" rx="32" fill="#F4F4F4"/>
<rect x="8.5" y="7.5" width="63" height="63" rx="31.5" stroke="white" stroke-opacity="0.3"/>
<path d="M36.0445 27.6436C33.1579 28.6578 30.6614 30.8423 29.2571 33.5728C28.789 34.509 28.399 35.5232 28.2429 36.6154C27.6968 39.1899 28.0869 41.9984 29.2571 44.3389C30.0373 45.8992 31.1295 47.2254 32.5338 48.3177C33.782 49.3319 35.2643 50.112 36.9026 50.5021C38.931 51.0482 41.0374 51.0482 42.9878 50.5801C44.7822 50.19 46.4985 49.3319 47.9028 48.0056C49.3851 46.6793 50.3993 44.963 50.9454 43.0126C51.5695 40.9842 51.6475 38.7998 51.2574 36.6934C47.5127 36.6934 43.768 36.6934 40.0232 36.6934C40.0232 38.2537 40.0232 39.814 40.0232 41.3743C42.2077 41.3743 44.3921 41.3743 46.4985 41.3743C46.2645 42.8566 45.3283 44.2609 44.08 45.041C43.2999 45.5871 42.3637 45.8992 41.4275 46.0552C40.4913 46.2113 39.4771 46.2113 38.541 46.0552C37.6048 45.8992 36.6686 45.4311 35.8884 44.885C34.6402 44.0268 33.626 42.7006 33.1579 41.2183C32.6118 39.736 32.6118 38.0977 33.1579 36.5374C33.548 35.5232 34.0941 34.509 34.8742 33.7288C35.8104 32.7146 37.0587 32.0125 38.4629 31.7784C39.6332 31.5444 40.8034 31.5444 41.9736 31.9345C42.9098 32.2465 43.846 32.7926 44.5481 33.4168C45.2503 32.7146 46.0304 31.9345 46.7326 31.2323C47.1226 30.8423 47.5127 30.4522 47.9028 30.0621C46.8106 29.0479 45.4843 28.1897 44.08 27.6436C41.5055 26.7855 38.619 26.7855 36.0445 27.6436Z" fill="white"/>
<path d="M36.0442 27.6435C38.6187 26.7853 41.5052 26.7853 44.0797 27.7215C45.484 28.2676 46.8103 29.0477 47.9025 30.14C47.5124 30.53 47.1223 30.9201 46.7322 31.3102C46.0301 32.0123 45.25 32.7925 44.5478 33.4946C43.8457 32.7925 42.9095 32.2464 41.9733 32.0123C40.8811 31.7003 39.6329 31.6222 38.4626 31.8563C37.1364 32.1684 35.8881 32.8705 34.8739 33.8067C34.0938 34.5868 33.4697 35.601 33.1576 36.6152C31.8313 35.601 30.5831 34.5868 29.2568 33.5726C30.6611 30.8421 33.1576 28.6577 36.0442 27.6435Z" fill="#EA4335"/>
<path d="M28.2429 36.6153C28.477 35.6011 28.789 34.587 29.2571 33.5728C30.5834 34.587 31.8316 35.6011 33.1579 36.6153C32.6118 38.0976 32.6118 39.736 33.1579 41.2963C31.8316 42.3105 30.5834 43.3247 29.2571 44.3389C28.0869 41.9204 27.6968 39.1899 28.2429 36.6153Z" fill="#FFCB05"/>
<path d="M39.9453 36.6934C43.69 36.6934 47.4348 36.6934 51.1795 36.6934C51.5696 38.7998 51.4916 40.9842 50.8674 43.0126C50.3213 44.885 49.3071 46.6013 47.8249 48.0056C46.5766 46.9914 45.3284 46.0552 44.0021 45.041C45.2503 44.1828 46.1085 42.8566 46.4206 41.3743C44.2361 41.3743 42.0517 41.3743 39.9453 41.3743C39.9453 39.814 39.9453 38.2537 39.9453 36.6934Z" fill="#4285F4"/>
<path d="M29.2568 44.339C30.5831 43.3248 31.8313 42.3106 33.1576 41.2964C33.6257 42.7787 34.6399 44.1049 35.8881 44.9631C36.6683 45.5092 37.6045 45.8993 38.5406 46.1333C39.4768 46.2894 40.413 46.2894 41.4272 46.1333C42.3634 45.9773 43.2996 45.5872 44.0797 45.1191C45.328 46.1333 46.5762 47.0695 47.9025 48.0837C46.4982 49.332 44.8599 50.1901 42.9875 50.6582C40.9591 51.1263 38.8527 51.1263 36.9023 50.5802C35.342 50.1901 33.8597 49.41 32.5335 48.3958C31.2072 47.2255 30.037 45.8213 29.2568 44.339Z" fill="#34A853"/>
</g>
<defs>
<filter id="filter0_d_2_2558" x="0" y="0" width="80" height="80" filterUnits="userSpaceOnUse" color-interpolation-filters="sRGB">
<feFlood flood-opacity="0" result="BackgroundImageFix"/>
<feColorMatrix in="SourceAlpha" type="matrix" values="0 0 0 0 0 0 0 0 0 0 0 0 0 0 0 0 0 0 127 0" result="hardAlpha"/>
<feOffset dy="1"/>
<feGaussianBlur stdDeviation="4"/>
<feColorMatrix type="matrix" values="0 0 0 0 0 0 0 0 0 0 0 0 0 0 0 0 0 0 0.05 0"/>
<feBlend mode="normal" in2="BackgroundImageFix" result="effect1_dropShadow_2_2558"/>
<feBlend mode="normal" in="SourceGraphic" in2="effect1_dropShadow_2_2558" result="shape"/>
</filter>
</defs>
</svg>
