<svg width="13" height="15" viewBox="0 0 13 15" fill="none" xmlns="http://www.w3.org/2000/svg">
<path d="M6.25 0C4.59296 0.00181975 3.0043 0.660884 1.83259 1.83259C0.660884 3.0043 0.00181975 4.59296 0 6.25C0 9.55125 5.25 14.0831 5.84625 14.5894L6.25 14.9306L6.65375 14.5894C7.25 14.0831 12.5 9.55125 12.5 6.25C12.4982 4.59296 11.8391 3.0043 10.6674 1.83259C9.4957 0.660884 7.90705 0.00181975 6.25 0ZM6.25 9.375C5.63193 9.375 5.02775 9.19172 4.51384 8.84834C3.99994 8.50496 3.5994 8.0169 3.36288 7.44589C3.12635 6.87487 3.06447 6.24653 3.18505 5.64034C3.30563 5.03415 3.60325 4.47733 4.04029 4.04029C4.47733 3.60325 5.03415 3.30562 5.64034 3.18505C6.24653 3.06447 6.87487 3.12635 7.44589 3.36288C8.01691 3.5994 8.50496 3.99994 8.84834 4.51384C9.19172 5.02775 9.375 5.63193 9.375 6.25C9.37401 7.0785 9.04445 7.87278 8.45861 8.45861C7.87278 9.04445 7.0785 9.37401 6.25 9.375Z" fill="black"/>
</svg>
