<svg width="86" height="86" viewBox="0 0 86 86" fill="none" xmlns="http://www.w3.org/2000/svg">
<rect x="0.5" y="0.5" width="84.4318" height="84.4318" rx="19.8409" stroke="#E2E2E2"/>
<path d="M67.9121 39.872H65.8201C66.8296 39.1832 67.6889 38.2967 68.3459 37.2662C69.0029 36.2356 69.4439 35.0825 69.6422 33.8766C69.8406 32.6706 69.7921 31.437 69.4998 30.2503C69.2075 29.0636 68.6774 27.9486 67.9416 26.9728C67.8789 26.8897 67.8005 26.8198 67.7107 26.7671C67.621 26.7143 67.5218 26.6797 67.4187 26.6653C67.3156 26.6509 67.2107 26.657 67.11 26.6831C67.0092 26.7093 66.9146 26.755 66.8315 26.8177C66.7485 26.8804 66.6785 26.9589 66.6258 27.0486C66.573 27.1383 66.5385 27.2375 66.5241 27.3406C66.5097 27.4437 66.5157 27.5486 66.5419 27.6494C66.568 27.7501 66.6137 27.8447 66.6764 27.9278C67.51 29.0344 68.0186 30.3516 68.1452 31.7312C68.2717 33.1109 68.0112 34.4986 67.3928 35.7384C66.7744 36.9782 65.8227 38.0211 64.6445 38.75C63.4662 39.479 62.1081 39.865 60.7226 39.8649H46.1423V36.2625C46.1421 35.754 45.9831 35.2584 45.6875 34.8446C45.3919 34.4309 44.9746 34.1198 44.4937 33.9548V21.1289C44.4937 20.9186 44.4101 20.7169 44.2614 20.5683C44.1128 20.4196 43.9111 20.3361 43.7009 20.3361C43.4906 20.3361 43.289 20.4196 43.1403 20.5683C42.9916 20.7169 42.9081 20.9186 42.9081 21.1289V33.9548C42.4272 34.1198 42.0098 34.4309 41.7142 34.8446C41.4187 35.2584 41.2597 35.754 41.2594 36.2625V39.8649H39.6108V17.5916C39.6111 17.5007 39.6473 17.4137 39.7115 17.3495C39.7757 17.2853 39.8627 17.2491 39.9536 17.2488H48.5842C48.675 17.2491 48.762 17.2853 48.8263 17.3495C48.8905 17.4137 48.9267 17.5007 48.927 17.5916C48.8466 21.4787 51.5347 24.9631 55.6395 24.9631H60.7247C62.0804 24.9626 63.4104 25.3326 64.5711 26.033C64.7511 26.1417 64.9668 26.1745 65.1709 26.1242C65.375 26.0738 65.5507 25.9445 65.6594 25.7645C65.7681 25.5846 65.8009 25.3689 65.7505 25.1648C65.7002 24.9607 65.5708 24.785 65.3909 24.6763C63.9822 23.8263 62.3679 23.3775 60.7226 23.3786H55.6374C52.4083 23.3786 50.4332 20.6051 50.5135 17.5916C50.5135 17.0791 50.31 16.5876 49.9476 16.2252C49.5852 15.8628 49.0937 15.6592 48.5812 15.6592H39.9536C39.4411 15.6592 38.9495 15.8628 38.5872 16.2252C38.2248 16.5876 38.0212 17.0791 38.0212 17.5916V39.872H29.9163C29.4262 39.8728 28.9564 40.0679 28.6098 40.4144C28.2632 40.761 28.0682 41.2308 28.0673 41.721V43.8802C28.0663 44.3797 27.8672 44.8585 27.5138 45.2116C27.1603 45.5646 26.6813 45.7632 26.1817 45.7637H24.528C23.7819 45.7645 23.0666 46.0613 22.539 46.5889C22.0114 47.1165 21.7147 47.8318 21.7139 48.5779V50.0445C21.7147 50.5346 21.9097 51.0044 22.2563 51.351C22.6029 51.6976 23.0727 51.8927 23.5629 51.8935H28.0541C28.039 52.2163 28.1005 52.5381 28.2336 52.8326C28.3667 53.1271 28.5676 53.3859 28.82 53.5879L30.2194 54.5998C30.5544 54.8295 30.9513 54.9519 31.3575 54.9507L32.2108 68.5283C32.2323 68.8641 32.381 69.1791 32.6267 69.4091C32.8723 69.639 33.1964 69.7667 33.533 69.766H34.5714C34.9079 69.7667 35.232 69.639 35.4776 69.4091C35.7233 69.1791 35.872 68.8641 35.8935 68.5283L36.7468 54.9507C37.153 54.9519 37.5499 54.8295 37.8849 54.5998L39.2833 53.5879C39.5357 53.3859 39.7366 53.1271 39.8697 52.8326C40.0028 52.5381 40.0643 52.2163 40.0492 51.8935H42.8521C43.1887 51.8939 43.5189 51.8023 43.8072 51.6286C44.0954 51.4549 44.3307 51.2057 44.4876 50.9079L44.9493 50.0343C44.9718 49.9918 45.0054 49.9562 45.0467 49.9315C45.0879 49.9067 45.1351 49.8938 45.1832 49.8939H56.2893C56.2742 50.2168 56.3357 50.5386 56.4688 50.8331C56.6019 51.1276 56.8028 51.3864 57.0552 51.5883L58.4536 52.6003C58.7502 52.8154 59.1045 52.9366 59.4707 52.9481L60.4501 68.5293C60.4713 68.8653 60.6199 69.1805 60.8656 69.4107C61.1113 69.6409 61.4356 69.7687 61.7722 69.768H62.8106C63.1472 69.7687 63.4713 69.6411 63.7169 69.4111C63.9626 69.1811 64.1113 68.8661 64.1328 68.5303L65.1122 52.9492C65.4784 52.9376 65.8327 52.8164 66.1293 52.6013L67.5277 51.5894C67.7918 51.3901 68.0008 51.1267 68.1348 50.8242C68.2688 50.5216 68.3234 50.1899 68.2935 49.8604C68.7124 49.7759 69.0891 49.5492 69.3599 49.2187C69.6307 48.8882 69.779 48.4743 69.7794 48.047V41.722C69.7786 41.2319 69.5836 40.762 69.237 40.4154C68.8904 40.0689 68.4206 39.8738 67.9304 39.873L67.9121 39.872ZM42.846 36.2625C42.846 36.0356 42.9361 35.8181 43.0966 35.6577C43.257 35.4973 43.4745 35.4072 43.7014 35.4072C43.9282 35.4072 44.1458 35.4973 44.3062 35.6577C44.4666 35.8181 44.5567 36.0356 44.5567 36.2625V39.8649H42.846V36.2625ZM34.3212 68.1845H33.7791L33.5126 63.9444H34.5876L34.3212 68.1845ZM34.6873 62.3599H33.4129L32.9471 54.9548H35.1521L34.6873 62.3599ZM38.4585 52.0918C38.4585 52.1337 38.4486 52.175 38.4295 52.2123C38.4104 52.2496 38.3827 52.2819 38.3487 52.3064L36.9502 53.3183C36.9053 53.3509 36.8511 53.3683 36.7956 53.3682H31.3087C31.2532 53.3683 31.199 53.3509 31.1541 53.3183L29.7556 52.3064C29.7067 52.2519 29.6713 52.1867 29.6522 52.1161C29.6331 52.0454 29.6309 51.9712 29.6458 51.8996H38.4585V52.0959V52.0918ZM43.5437 49.2959L43.082 50.1696C43.0597 50.2123 43.026 50.248 42.9848 50.273C42.9436 50.2979 42.8963 50.311 42.8481 50.3109H23.5639C23.4937 50.3109 23.4265 50.2831 23.3769 50.2335C23.3273 50.1839 23.2994 50.1166 23.2994 50.0465V48.5799C23.2997 48.2542 23.4292 47.9418 23.6596 47.7115C23.8899 47.4811 24.2023 47.3516 24.528 47.3513H26.1817C27.1018 47.3503 27.9838 46.9843 28.6343 46.3338C29.2849 45.6832 29.6508 44.8012 29.6519 43.8812V41.722C29.6519 41.6873 29.6587 41.6529 29.672 41.6208C29.6853 41.5887 29.7048 41.5596 29.7294 41.535C29.7539 41.5105 29.7831 41.491 29.8151 41.4777C29.8472 41.4644 29.8816 41.4576 29.9163 41.4576H67.9121C67.9469 41.4576 67.9813 41.4644 68.0133 41.4777C68.0454 41.491 68.0746 41.5105 68.0991 41.535C68.1237 41.5596 68.1432 41.5887 68.1564 41.6208C68.1697 41.6529 68.1766 41.6873 68.1766 41.722V48.047C68.1766 48.1171 68.1487 48.1844 68.0991 48.234C68.0495 48.2836 67.9823 48.3114 67.9121 48.3114H45.1822C44.8459 48.311 44.5159 48.4025 44.2278 48.576C43.9398 48.7495 43.7046 48.9985 43.5478 49.2959H43.5437ZM62.9195 62.3589H61.6451L61.0542 52.9532H63.5104L62.9195 62.3589ZM62.5533 68.1835H62.0112L61.7448 63.9434H62.8198L62.5533 68.1835ZM66.6907 50.0913C66.6906 50.1332 66.6806 50.1744 66.6615 50.2117C66.6424 50.249 66.6148 50.2813 66.5808 50.3059L65.1824 51.3178C65.1374 51.3504 65.0833 51.3678 65.0278 51.3676H59.5358C59.4803 51.3677 59.4262 51.3503 59.3812 51.3178L57.9827 50.3059C57.9338 50.2514 57.8984 50.1862 57.8793 50.1155C57.8602 50.0449 57.858 49.9707 57.8729 49.899H66.6896V50.0953L66.6907 50.0913Z" fill="black" stroke="black" stroke-width="0.508523"/>
<path d="M25.5543 54.2808H23.686C23.4685 54.2966 23.2654 54.3953 23.1185 54.5566C22.9717 54.7178 22.8923 54.9292 22.8968 55.1473C22.914 55.352 23.01 55.542 23.1647 55.6771C23.3194 55.8122 23.5206 55.8819 23.7257 55.8714C24.3359 55.8429 24.9461 55.8663 25.5564 55.8663C25.907 55.8663 26.2433 56.0056 26.4913 56.2536C26.7392 56.5015 26.8785 56.8378 26.8785 57.1885V58.6306H17.2369V57.1885C17.2369 56.8378 17.3762 56.5015 17.6242 56.2536C17.8721 56.0056 18.2084 55.8663 18.5591 55.8663C19.2212 55.8663 19.8935 55.906 20.5535 55.8714C20.7557 55.8613 20.9462 55.7742 21.0862 55.628C21.2261 55.4818 21.3048 55.2876 21.3061 55.0852C21.3061 55.074 21.3061 55.0639 21.3061 55.0537C21.3011 54.8469 21.2154 54.6504 21.0674 54.5059C20.9193 54.3615 20.7207 54.2807 20.5139 54.2808H18.5581C17.7872 54.2816 17.0482 54.5882 16.5033 55.1334C15.9583 55.6785 15.6519 56.4176 15.6514 57.1885V68.4502C15.6514 68.8009 15.7907 69.1372 16.0386 69.3851C16.2866 69.6331 16.6229 69.7724 16.9735 69.7724H18.194C18.5098 69.7742 18.8157 69.662 19.0555 69.4565C19.2954 69.251 19.4531 68.966 19.4999 68.6536L20.3857 62.825H23.7287L24.6146 68.6536C24.6615 68.9659 24.8193 69.2508 25.0591 69.4563C25.2989 69.6617 25.6047 69.7739 25.9205 69.7724H27.1409C27.4916 69.7724 27.8279 69.6331 28.0758 69.3851C28.3238 69.1372 28.4631 68.8009 28.4631 68.4502V57.1885C28.4626 56.4173 28.1559 55.6779 27.6105 55.1327C27.0651 54.5874 26.3255 54.281 25.5543 54.2808ZM26.8765 68.1848H26.1473L25.1923 61.9076C25.1638 61.7201 25.069 61.549 24.9251 61.4255C24.7812 61.3019 24.5978 61.2341 24.4081 61.2343H19.7023C19.5126 61.2341 19.3292 61.3019 19.1853 61.4255C19.0414 61.549 18.9466 61.7201 18.9181 61.9076L17.9641 68.1848H17.2369V60.2152H26.8755L26.8765 68.1848Z" fill="black" stroke="black" stroke-width="0.508523"/>
</svg>
