<svg width="86" height="86" viewBox="0 0 86 86" fill="none" xmlns="http://www.w3.org/2000/svg">
<rect x="0.5" y="0.5" width="84.4318" height="84.4318" rx="19.8409" stroke="#E2E2E2"/>
<path d="M49.951 65.9128V53.0248C49.9075 52.3 49.5786 51.6219 49.0364 51.1389C48.4941 50.6559 47.7826 50.4073 47.0575 50.4477H38.374C37.6488 50.4071 36.937 50.6555 36.3945 51.1385C35.852 51.6215 35.523 52.2998 35.4795 53.0248V65.9128" stroke="#222222" stroke-width="2.54261" stroke-linecap="round" stroke-linejoin="round"/>
<path d="M22.4561 40.1382V55.6034C22.4561 60.4638 22.4561 62.8936 24.1515 64.4039C25.8469 65.9142 28.5756 65.9142 34.0331 65.9142H51.4002C56.8576 65.9142 59.5864 65.9142 61.2818 64.4039C62.9772 62.8936 62.9772 60.4638 62.9772 55.6034V40.1382" stroke="#222222" stroke-width="2.54261"/>
<path d="M21.3592 23.4225C21.8861 21.5471 22.1485 20.6094 22.9336 20.0663C23.7188 19.5232 24.805 19.5181 26.9754 19.5181H58.457C60.6274 19.5181 61.7115 19.5181 62.4977 20.0642C63.2839 20.6104 63.5463 21.5522 64.0731 23.4225L67.5565 35.8305C67.7827 36.4412 67.9141 37.0829 67.946 37.7334C67.8857 38.2717 67.6619 38.7786 67.3047 39.1859C66.9476 39.5932 66.4743 39.8813 65.9485 40.0115C65.2203 40.1421 64.4789 40.1841 63.7405 40.1366C62.751 40.184 61.7591 40.1391 60.7779 40.0024C59.9162 39.8423 59.1034 39.4842 58.4038 38.9563C57.7041 38.4284 57.1367 37.7451 56.7463 36.9604C56.439 36.1429 56.2284 35.2923 56.1188 34.4259C56.097 34.2189 56.0488 34.0156 55.9754 33.8208C55.9462 33.7872 55.9101 33.7602 55.8696 33.7417C55.829 33.7232 55.785 33.7137 55.7405 33.7137C55.6959 33.7137 55.6519 33.7232 55.6114 33.7417C55.5708 33.7602 55.5347 33.7872 55.5055 33.8208C55.4321 34.0156 55.3839 34.2189 55.3621 34.4259L55.1313 35.6891C55.1068 35.8223 55.0936 35.8925 55.0814 35.9484C54.7575 37.1671 54.0345 38.242 53.0279 39.0014C52.0212 39.7608 50.7891 40.1609 49.5283 40.1376H48.9374C47.6767 40.1609 46.4446 39.7608 45.4379 39.0014C44.4313 38.242 43.7083 37.1671 43.3844 35.9484C43.3722 35.8894 43.3589 35.8233 43.3345 35.6891L43.0986 34.428C43.0768 34.2209 43.0286 34.0176 42.9552 33.8228C42.926 33.7892 42.8899 33.7622 42.8493 33.7437C42.8088 33.7253 42.7648 33.7157 42.7202 33.7157C42.6757 33.7157 42.6317 33.7253 42.5911 33.7437C42.5506 33.7622 42.5145 33.7892 42.4853 33.8228C42.4119 34.0176 42.3637 34.2209 42.3419 34.428L42.1059 35.6891C42.0815 35.8223 42.0683 35.8925 42.0561 35.9484C41.7322 37.1671 41.0092 38.242 40.0026 39.0014C38.9959 39.7608 37.7638 40.1609 36.503 40.1376H35.9091C34.6484 40.1609 33.4162 39.7608 32.4096 39.0014C31.403 38.242 30.6799 37.1671 30.356 35.9484C30.3438 35.8894 30.3306 35.8233 30.3062 35.6891L30.0702 34.428C30.0484 34.2209 30.0002 34.0176 29.9268 33.8228C29.8976 33.7892 29.8615 33.7622 29.821 33.7437C29.7805 33.7253 29.7364 33.7157 29.6919 33.7157C29.6473 33.7157 29.6033 33.7253 29.5628 33.7437C29.5223 33.7622 29.4862 33.7892 29.457 33.8228C29.3835 34.0176 29.3354 34.2209 29.3135 34.428C29.2039 35.2944 28.9933 36.145 28.686 36.9624C28.2956 37.7471 27.7282 38.4304 27.0286 38.9583C26.3289 39.4862 25.5162 39.8443 24.6545 40.0044C23.6732 40.1411 22.6814 40.1861 21.6918 40.1387C20.9535 40.1861 20.2121 40.1441 19.4838 40.0136C18.958 39.8833 18.4847 39.5952 18.1276 39.1879C17.7705 38.7806 17.5467 38.2737 17.4863 37.7354C17.5184 37.0849 17.6497 36.4432 17.8759 35.8325L21.3592 23.4225Z" stroke="#222222" stroke-width="2.54261"/>
</svg>
