<svg width="86" height="86" viewBox="0 0 86 86" fill="none" xmlns="http://www.w3.org/2000/svg">
<rect x="0.5" y="0.5" width="84.4318" height="84.4318" rx="19.8409" stroke="#E2E2E2"/>
<g clip-path="url(#clip0_2_3264)">
<path d="M57.6191 18.752C58.7401 18.5388 59.8944 18.577 60.999 18.8633C62.1036 19.1496 63.1315 19.6764 64.0078 20.4072L64.0088 20.4082C64.8881 21.1354 65.5958 22.0484 66.0811 23.0811C66.5663 24.1137 66.8167 25.2409 66.8154 26.3818V52.9238C66.8154 54.4599 66.3602 55.962 65.5068 57.2393C64.6535 58.5164 63.4405 59.5118 62.0215 60.0996C60.6024 60.6874 59.0407 60.8416 57.5342 60.542C56.0277 60.2423 54.6438 59.5021 53.5576 58.416C52.4714 57.3298 51.7313 55.946 51.4316 54.4395C51.132 52.9329 51.2862 51.3713 51.874 49.9521C52.4619 48.533 53.4572 47.3202 54.7344 46.4668C56.011 45.6138 57.5116 45.1577 59.0469 45.1572C60.414 45.1678 61.754 45.5431 62.9277 46.2441L63.5322 46.6055V34.1406C63.5344 33.7813 63.4577 33.4257 63.3066 33.0996C63.1552 32.7726 62.9328 32.483 62.6562 32.252C62.3798 32.0211 62.0555 31.8546 61.707 31.7637C61.4454 31.6955 61.1746 31.6711 60.9062 31.6914L60.6387 31.7266L37.8076 36.0137C36.7795 36.2061 35.8507 36.7528 35.1826 37.5576C34.5148 38.3623 34.1494 39.3751 34.1494 40.4209V59.0488C34.1494 60.5849 33.6933 62.087 32.8398 63.3643C31.9864 64.6414 30.7736 65.6368 29.3545 66.2246C27.9354 66.8124 26.3737 66.9667 24.8672 66.667C23.3606 66.3673 21.9768 65.6272 20.8906 64.541C19.8045 63.4548 19.0643 62.071 18.7646 60.5645C18.465 59.0579 18.6192 57.4963 19.207 56.0771C19.7948 54.6581 20.7903 53.4452 22.0674 52.5918C23.3442 51.7387 24.8453 51.2825 26.3809 51.2822C27.7473 51.2904 29.0872 51.663 30.2617 52.3613L30.8662 52.7207V31.9072C30.8664 29.6196 31.6658 27.4038 33.127 25.6436C34.5881 23.8833 36.6187 22.689 38.8672 22.2676L57.6182 18.752H57.6191ZM28.0986 54.9072C27.2794 54.5679 26.3775 54.4794 25.5078 54.6523C24.6382 54.8253 23.8389 55.2519 23.2119 55.8789C22.585 56.5059 22.1583 57.3052 21.9854 58.1748C21.8124 59.0443 21.901 59.9456 22.2402 60.7646C22.5796 61.5839 23.1543 62.2847 23.8916 62.7773C24.6289 63.2699 25.4961 63.5322 26.3828 63.5322C27.5717 63.5321 28.712 63.0604 29.5527 62.2197C30.3935 61.3789 30.8662 60.2379 30.8662 59.0488C30.8661 58.1623 30.6028 57.2957 30.1104 56.5586C29.6178 55.8214 28.9177 55.2466 28.0986 54.9072ZM60.7646 48.7822C59.9455 48.443 59.0444 48.3544 58.1748 48.5273C57.3051 48.7003 56.5059 49.1269 55.8789 49.7539C55.2519 50.3809 54.8253 51.1801 54.6523 52.0498C54.4794 52.9194 54.568 53.8205 54.9072 54.6396C55.2466 55.4589 55.8213 56.1597 56.5586 56.6523C57.2957 57.1448 58.1624 57.4072 59.0488 57.4072C60.2379 57.4072 61.3789 56.9355 62.2197 56.0947C63.0605 55.2539 63.5322 54.1129 63.5322 52.9238C63.5322 52.0374 63.2698 51.1707 62.7773 50.4336C62.2847 49.6963 61.5839 49.1216 60.7646 48.7822ZM60.1748 22.0449C59.5375 21.8796 58.8717 21.8565 58.2246 21.9775H58.2236L39.4717 25.4932C37.9757 25.7737 36.6243 26.5689 35.6523 27.7402C34.6807 28.9114 34.1492 30.3854 34.1494 31.9072V34.0527L34.75 33.7021C35.5097 33.2601 36.3397 32.9507 37.2031 32.7861L37.2021 32.7852L60.0322 28.5068L60.0332 28.5078C61.0254 28.3277 62.0483 28.4167 62.9941 28.7666L63.5322 28.9658V26.3828C63.5319 25.7243 63.3865 25.0735 63.1064 24.4775C62.8264 23.8817 62.4187 23.355 61.9121 22.9346C61.4054 22.5141 60.8122 22.2103 60.1748 22.0449Z" fill="black" stroke="white" stroke-width="0.8"/>
</g>
<defs>
<clipPath id="clip0_2_3264">
<rect width="49" height="49" fill="white" transform="translate(18.2158 18.2158)"/>
</clipPath>
</defs>
</svg>
