<svg width="20" height="18" viewBox="0 0 20 18" fill="none" xmlns="http://www.w3.org/2000/svg">
<path d="M10 4C10.2833 4 10.5208 4.09583 10.7125 4.2875C10.9042 4.47917 11 4.71667 11 5V17C11 17.2833 10.9042 17.5208 10.7125 17.7125C10.5208 17.9042 10.2833 18 10 18C9.71667 18 9.47917 17.9042 9.2875 17.7125C9.09583 17.5208 9 17.2833 9 17V5C9 4.71667 9.09583 4.47917 9.2875 4.2875C9.47917 4.09583 9.71667 4 10 4ZM6 7C6.28333 7 6.52083 7.09583 6.7125 7.2875C6.90417 7.47917 7 7.71667 7 8V14C7 14.2833 6.90417 14.5208 6.7125 14.7125C6.52083 14.9042 6.28333 15 6 15C5.71667 15 5.47917 14.9042 5.2875 14.7125C5.09583 14.5208 5 14.2833 5 14V8C5 7.71667 5.09583 7.47917 5.2875 7.2875C5.47917 7.09583 5.71667 7 6 7ZM14 7C14.2833 7 14.5208 7.09583 14.7125 7.2875C14.9042 7.47917 15 7.71667 15 8V14C15 14.2833 14.9042 14.5208 14.7125 14.7125C14.5208 14.9042 14.2833 15 14 15C13.7167 15 13.4792 14.9042 13.2875 14.7125C13.0958 14.5208 13 14.2833 13 14V8C13 7.71667 13.0958 7.47917 13.2875 7.2875C13.4792 7.09583 13.7167 7 14 7ZM10 2C9.25 2 8.54583 2.1875 7.8875 2.5625C7.22917 2.9375 6.70833 3.45 6.325 4.1C5.79167 5 5.0625 5.70833 4.1375 6.225C3.2125 6.74167 2.225 7 1.175 7H1C0.716667 7 0.479167 6.90417 0.2875 6.7125C0.0958333 6.52083 0 6.28333 0 6C0 5.71667 0.0958333 5.47917 0.2875 5.2875C0.479167 5.09583 0.716667 5 1 5H1.175C1.875 5 2.52917 4.825 3.1375 4.475C3.74583 4.125 4.23333 3.65 4.6 3.05C5.16667 2.1 5.92917 1.35417 6.8875 0.8125C7.84583 0.270833 8.88333 0 10 0C11.1167 0 12.1542 0.270833 13.1125 0.8125C14.0708 1.35417 14.8333 2.1 15.4 3.05C15.7667 3.65 16.2542 4.125 16.8625 4.475C17.4708 4.825 18.125 5 18.825 5H19C19.2833 5 19.5208 5.09583 19.7125 5.2875C19.9042 5.47917 20 5.71667 20 6C20 6.28333 19.9042 6.52083 19.7125 6.7125C19.5208 6.90417 19.2833 7 19 7H18.85C17.8 7 16.8125 6.74167 15.8875 6.225C14.9625 5.70833 14.2333 5 13.7 4.1C13.3167 3.45 12.7958 2.9375 12.1375 2.5625C11.4792 2.1875 10.7667 2 10 2ZM2 12C1.71667 12 1.47917 11.9042 1.2875 11.7125C1.09583 11.5208 1 11.2833 1 11C1 10.7167 1.09583 10.4792 1.2875 10.2875C1.47917 10.0958 1.71667 10 2 10C2.28333 10 2.52083 10.0958 2.7125 10.2875C2.90417 10.4792 3 10.7167 3 11C3 11.2833 2.90417 11.5208 2.7125 11.7125C2.52083 11.9042 2.28333 12 2 12ZM18 12C17.7167 12 17.4792 11.9042 17.2875 11.7125C17.0958 11.5208 17 11.2833 17 11C17 10.7167 17.0958 10.4792 17.2875 10.2875C17.4792 10.0958 17.7167 10 18 10C18.2833 10 18.5208 10.0958 18.7125 10.2875C18.9042 10.4792 19 10.7167 19 11C19 11.2833 18.9042 11.5208 18.7125 11.7125C18.5208 11.9042 18.2833 12 18 12Z" fill="#1A1A1A"/>
</svg>
