<svg width="20" height="13" viewBox="0 0 20 13" fill="none" xmlns="http://www.w3.org/2000/svg">
<path d="M0.325 11.8C0.108333 11.5833 0 11.3333 0 11.05C0 10.7667 0.108333 10.5167 0.325 10.3L5.65 4.975C6.03333 4.59167 6.50833 4.4 7.075 4.4C7.64167 4.4 8.11667 4.59167 8.5 4.975L11.075 7.55L17.475 0.325C17.6583 0.108333 17.8958 0 18.1875 0C18.4792 0 18.725 0.1 18.925 0.3C19.1083 0.483333 19.2042 0.704167 19.2125 0.9625C19.2208 1.22083 19.1333 1.45 18.95 1.65L12.475 8.95C12.0917 9.38333 11.6167 9.6125 11.05 9.6375C10.4833 9.6625 9.99167 9.46667 9.575 9.05L7.075 6.55L1.825 11.8C1.60833 12.0167 1.35833 12.125 1.075 12.125C0.791667 12.125 0.541667 12.0167 0.325 11.8Z" fill="#1A1A1A"/>
</svg>
