<svg width="248" height="69" viewBox="0 0 248 69" fill="none" xmlns="http://www.w3.org/2000/svg">
<path d="M240.43 41.45C239.7 43.89 239.06 46.13 242.3 47.76C240.17 48.96 237.89 48.84 235.99 48.69C231.72 48.33 233.64 43.29 234.61 40.37C233.19 42.58 228.84 49.8 220.98 48.55C217.12 47.94 215.56 44.59 215.12 41.5C212.63 45.62 208.48 49.53 202.12 48.85C200.56 48.68 197.82 48.12 195.95 45.47C192.58 38.81 196.9 28.83 198.7 26.11C201.13 22.45 205.22 18.26 210.9 17.94C212.65 17.84 217.02 18.29 217.52 21.84C218.01 25.31 213.63 25.69 212.85 23.99C212.57 23.39 212.44 22.42 212.29 21.85C212 20.79 207.82 16.89 203.07 32.42C202.23 35.16 200.08 45.49 206.97 45.33C209.53 45.27 212.77 42.92 215.06 38.17C215.07 38.05 215.09 37.94 215.1 37.83C215.73 33.42 220.41 17.58 233.1 18.04C236.52 18.23 239.27 20.26 239.83 22.13C239.83 22.13 240.52 19.93 241.17 18.08L247.44 18.05L240.45 41.47L240.43 41.45ZM237.38 23.96C237.06 19.23 231.36 19.72 228.48 23.28C226.21 26.09 223.93 29.86 222.82 34.91C221.58 40.57 223.1 43.68 226.54 43.93C230.92 44.26 237.84 30.86 237.37 23.95L237.38 23.96ZM194.75 15.01C192.22 15.01 190.17 12.95 190.17 10.4C190.17 7.85 192.22 5.79 194.75 5.79C197.28 5.79 199.33 7.85 199.33 10.4C199.33 12.95 197.28 15.01 194.75 15.01ZM178.94 47.69C176.67 49.02 173.55 48.93 171.77 48.62C169.89 48.28 167.88 46.95 169.33 41.99C168.36 43.98 163.44 50.2 156.49 48.73C150.18 47.39 150.41 39.83 151.48 35C152.83 28.87 158.21 18.1 168.87 18.41C171.74 18.49 173.81 19.93 175.06 22.12L181.48 0H188.8L176.21 41.87C175.74 43.77 176.66 46.39 178.94 47.71V47.69ZM158.75 33.6C155.7 44.26 160.02 48.46 166.64 42.07C169.82 39.01 173.06 30.55 173.19 26.28C173.36 20.95 164.31 16.01 158.75 33.6ZM139.2 47.89C136.34 49.19 130.94 49.56 127.17 46.77C121.36 42.46 122.59 35.36 124.13 30.36C125.59 25.63 131.22 17.92 139.88 18.05C140.52 18.05 145.46 18.21 148.1 22.17C151.75 27.67 149.08 36.61 147.35 39.97C145.35 43.86 142.75 46.28 139.19 47.9L139.2 47.89ZM142.1 20.41C137.03 18.55 133.59 25.6 131.86 29.43C129.86 33.85 127.49 45.21 132.69 46.42C137.14 47.45 141.52 38.45 142.85 34.16C144.18 29.86 146.26 21.94 142.1 20.42V20.41ZM119.46 47.35C117.4 48.63 114.17 49.12 111.73 48.69C110.56 48.48 108.49 47.1 109.27 43.05C108.69 43.69 108.14 44.24 107.67 44.68C104.66 47.49 93.93 51.85 88.64 46.48C85.59 43.39 86.28 36.14 88.13 31.78C90.75 25.58 96.4 18.18 104.65 18.06C109 17.99 115.38 21.95 110.44 29.17C108.45 32.07 103.43 35.21 94.43 34.5C93.85 36.02 91.75 46.69 100.13 45.43C102.47 45.09 107.41 43.43 111.11 37.66L124.1 0.09L131.6 0.19L118.62 37.32C115.88 44.7 117.46 45.63 119.46 47.35ZM106.07 23.14C105.86 20.47 103.05 19.89 100.16 22.47C97.68 24.68 96.22 28.13 94.61 33.08C103.44 32.7 106.31 26.12 106.07 23.15V23.14ZM84.04 31.36L80.77 40.78C80.19 42.53 81.36 43.56 82.11 44.24C83.08 45.13 84.12 45.92 84.99 46.33C78.9 49.22 70.4 49.61 71.96 44.23C72.24 43.26 72.59 42.16 73 40.93L78.89 23.5L85.04 6.42C85.27 5.81 85.32 5.46 85.16 5.39C85.01 5.32 84.8 5.4 84.56 5.64C84.51 5.69 84.05 6.29 83.16 7.45L79.69 11.92L74.86 18.18L69.41 25.41L63.99 32.71L59.18 39.14L55.61 43.87L53.97 46.04C53.1 47.16 52.26 47.71 51.46 47.7C50.74 47.7 50.38 47.16 50.34 46.09C50.31 45.9 50.31 44.87 50.32 42.98L50.3 35.96L50.25 26.93L50.35 17.87L50.57 10.81L50.73 7.68C50.8 7.16 50.73 6.9 50.51 6.9C50.29 6.9 50.06 7.16 49.82 7.68C49.39 8.67 48.83 10 48.17 11.66L45.87 17.29L42.99 23.97C41.9234 26.3631 40.793 28.7273 39.6 31.06C38.406 33.4047 37.1114 35.6968 35.72 37.93C34.34 40.14 32.91 42.11 31.43 43.85C30 45.54 28.48 47.07 26.9 48.41C25.3985 49.6945 23.7423 50.7863 21.97 51.66C20.3103 52.4705 18.5419 53.0364 16.72 53.34C15.82 53.49 14.91 53.56 13.99 53.55C13.53 53.55 13.06 53.53 12.59 53.49C12.53 53.49 12.47 53.48 12.41 53.47C12.35 53.47 12.29 53.46 12.23 53.45C12.11 53.44 11.99 53.42 11.87 53.41L11.15 53.31C9.77 53.1 8.43 52.61 7.09 51.88C5.75 51.15 4.54 50.2 3.45 48.99C2.36 47.78 1.46 46.34 0.8 44.57C0.453665 43.6176 0.222033 42.6272 0.11 41.62C0.0468329 41.0554 0.0101261 40.4881 0 39.92L0 39.47V39.24V39.01C0.01 38.7 0.03 38.38 0.05 38.05C0.21 35.99 0.66 34.06 1.37 32.34C2.08 30.62 2.93 29.12 3.92 27.88C4.91 26.64 5.98 25.7 7.15 25.06C8.32 24.42 9.47 24.11 10.63 24.13C11.85 24.15 12.81 24.64 13.5 25.6C14.19 26.56 14.46 27.82 14.3 29.37C14.2 30.31 13.86 31.13 13.28 31.84C12.7 32.55 11.88 32.89 10.85 32.86C10.03 32.84 9.47 32.54 9.16 31.95C8.85 31.36 8.58 30.84 8.36 30.36C8.05 29.7 7.63 29.36 7.12 29.35C6.64 29.34 6.13 29.51 5.6 29.87C5.06 30.23 4.56 30.78 4.09 31.53C3.62 32.27 3.2 33.18 2.84 34.25C2.48 35.31 2.24 36.52 2.13 37.84C2.03 39.08 2.17 40.3 2.56 41.5C2.95 42.7 3.55 43.77 4.37 44.74C5.19 45.7 6.21 46.5 7.42 47.15C8.64 47.8 10.06 48.21 11.71 48.37C14.81 48.65 17.89 48.16 20.95 46.71C24.01 45.26 27.13 42.86 30.24 39.44C32 37.53 33.72 35.15 35.41 32.29C37.0953 29.4471 38.6665 26.5381 40.12 23.57C41.5048 20.7737 42.8185 17.9428 44.06 15.08L47 8.47C46.85 8.82 48.3 5.7 50.69 0.22C51.8 0.36 53.35 0.28 56.48 0.19C57.36 0.15 57.94 0.37 58.29 0.72C58.64 1.06 58.75 1.52 58.69 1.95C57.86 19.07 57.69 23.72 57.73 33.24C57.76 35.94 59.57 33.91 60.05 33.31L84.42 1.21C84.73 0.83 85.06 0.56 85.41 0.4C85.76 0.24 86.34 0.16 87.15 0.16H94.61L84.04 31.36ZM55.27 62.82L57.86 54.31H60.44V64.95H58.75V56.16L56.12 64.95H54.39L51.78 56.16V64.95H50.14V54.31H52.72L55.28 62.82H55.27ZM65.11 61.92C65.11 62.59 65.22 63.06 65.44 63.33C65.66 63.6 66.02 63.73 66.54 63.73C67.18 63.73 67.67 63.54 68.01 63.17C68.35 62.8 68.52 62.25 68.52 61.54V57.16H70.16V64.96H68.58V63.89C68.32 64.29 67.98 64.61 67.56 64.82C67.14 65.03 66.67 65.15 66.17 65.15C65.63 65.15 65.16 65.07 64.78 64.91C64.4 64.75 64.09 64.51 63.86 64.19C63.71 63.98 63.61 63.74 63.55 63.46C63.49 63.18 63.46 62.73 63.46 62.11V57.15H65.12V61.92H65.11ZM74.68 63.49C74.98 63.73 75.42 63.85 76 63.85C76.48 63.85 76.87 63.76 77.15 63.57C77.43 63.38 77.57 63.13 77.57 62.82C77.57 62.58 77.49 62.4 77.32 62.26C77.15 62.12 76.83 61.99 76.36 61.88L75.19 61.58C74.3 61.36 73.68 61.08 73.31 60.74C72.94 60.4 72.76 59.93 72.76 59.34C72.76 58.59 73.03 58 73.58 57.56C74.13 57.13 74.87 56.91 75.81 56.91C76.75 56.91 77.56 57.14 78.14 57.59C78.72 58.04 79.01 58.66 79.01 59.43H77.4C77.37 59.05 77.22 58.75 76.94 58.55C76.66 58.35 76.27 58.25 75.76 58.25C75.35 58.25 75.02 58.33 74.78 58.48C74.54 58.63 74.42 58.84 74.42 59.09C74.4172 59.2058 74.4421 59.3207 74.4925 59.425C74.543 59.5294 74.6175 59.6202 74.71 59.69C74.9 59.84 75.25 59.97 75.74 60.08L76.73 60.3C77.69 60.52 78.34 60.8 78.7 61.14C79.06 61.49 79.23 61.97 79.23 62.61C79.23 63.43 78.93 64.07 78.34 64.53C77.75 64.99 76.92 65.22 75.85 65.22C74.78 65.22 73.98 64.98 73.4 64.49C72.82 64.01 72.53 63.32 72.53 62.43H74.14C74.19 62.9 74.36 63.26 74.67 63.5L74.68 63.49ZM83.35 55.99H81.69V54.32H83.35V55.99ZM83.35 64.96H81.69V57.16H83.35V64.96ZM89.48 56.91C90.47 56.91 91.26 57.17 91.86 57.69C92.46 58.21 92.79 58.92 92.84 59.83H91.21C91.17 59.37 91 59 90.7 58.73C90.4 58.46 90.01 58.33 89.52 58.33C88.88 58.33 88.39 58.56 88.06 59.02C87.73 59.48 87.56 60.16 87.56 61.06C87.56 61.96 87.72 62.61 88.05 63.07C88.38 63.53 88.85 63.76 89.47 63.76C89.96 63.76 90.37 63.62 90.68 63.34C90.99 63.06 91.18 62.65 91.25 62.12H92.85C92.77 63.09 92.42 63.85 91.8 64.4C91.18 64.95 90.35 65.23 89.31 65.23C88.27 65.23 87.4 64.86 86.78 64.12C86.16 63.38 85.85 62.37 85.85 61.1C85.85 59.83 86.17 58.78 86.81 58.04C87.45 57.3 88.34 56.93 89.47 56.93L89.48 56.91ZM102.4 58.91C101.99 58.42 101.7 58 101.53 57.65C101.36 57.3 101.29 56.95 101.29 56.58C101.29 55.86 101.53 55.27 102.02 54.82C102.5 54.37 103.14 54.14 103.93 54.14C104.72 54.14 105.36 54.35 105.82 54.77C106.28 55.19 106.51 55.75 106.51 56.46C106.516 56.9894 106.355 57.5072 106.05 57.94C105.74 58.38 105.28 58.8 104.64 59.18L106.43 61.37C106.572 61.1143 106.683 60.8423 106.76 60.56C106.84 60.26 106.89 59.94 106.91 59.6H108.43C108.405 60.1381 108.304 60.67 108.13 61.18C107.96 61.67 107.73 62.14 107.42 62.57L109.39 64.95H107.32L106.42 63.84C106.017 64.287 105.523 64.6417 104.97 64.88C104.43 65.11 103.82 65.22 103.15 65.22C102.24 65.22 101.49 64.92 100.91 64.33C100.33 63.74 100.03 62.99 100.03 62.08C100.03 61.43 100.21 60.86 100.58 60.36C100.95 59.87 101.56 59.38 102.42 58.89L102.4 58.91ZM104.73 57.42C104.923 57.1597 105.029 56.8443 105.03 56.52C105.03 56.2 104.93 55.92 104.74 55.72C104.55 55.52 104.29 55.42 103.96 55.42C103.59 55.42 103.31 55.51 103.11 55.7C102.91 55.89 102.81 56.14 102.81 56.47C102.81 56.72 102.88 56.97 103.03 57.24C103.18 57.51 103.43 57.83 103.78 58.22C104.2 57.96 104.52 57.7 104.72 57.42H104.73ZM102.18 63.27C102.51 63.6 102.93 63.76 103.45 63.76C103.82 63.76 104.19 63.67 104.54 63.49C104.904 63.2978 105.232 63.0441 105.51 62.74L103.26 59.99C102.71 60.31 102.31 60.62 102.06 60.94C101.81 61.26 101.69 61.62 101.69 62.01C101.69 62.52 101.85 62.94 102.18 63.27ZM124.25 55.65C125.03 56.53 125.43 57.85 125.43 59.61C125.43 61.37 125 62.65 124.14 63.58C123.28 64.51 122.05 64.97 120.44 64.97H116.62V54.33H120.73C122.29 54.33 123.46 54.77 124.25 55.65ZM118.37 55.84V63.4H120.55C121.61 63.4 122.38 63.08 122.88 62.45C123.38 61.82 123.63 60.84 123.63 59.52C123.63 58.32 123.38 57.4 122.88 56.77C122.38 56.14 121.64 55.83 120.67 55.83H118.38L118.37 55.84ZM130.88 60.3C130.88 60.3 130.97 60.3 131.04 60.29C132.09 60.15 132.61 59.85 132.61 59.39C132.61 59.01 132.48 58.74 132.22 58.56C131.96 58.38 131.56 58.29 131.01 58.29C130.51 58.29 130.12 58.4 129.85 58.61C129.58 58.82 129.44 59.13 129.44 59.52V59.58H127.87V59.45C127.87 58.67 128.16 58.06 128.73 57.61C129.3 57.16 130.08 56.94 131.07 56.94C132.11 56.94 132.89 57.13 133.42 57.52C133.95 57.91 134.21 58.48 134.21 59.24V63.1C134.21 63.4 134.24 63.59 134.31 63.68C134.38 63.77 134.5 63.82 134.68 63.82H134.79C134.83 63.82 134.91 63.81 135 63.8V65.01C134.85 65.05 134.71 65.08 134.56 65.1C134.42 65.12 134.28 65.13 134.15 65.13C133.65 65.13 133.27 65.03 133.03 64.84C132.79 64.65 132.66 64.35 132.65 63.94C132.33 64.35 131.95 64.67 131.5 64.89C131.05 65.11 130.57 65.22 130.06 65.22C129.27 65.22 128.65 65.02 128.21 64.61C127.77 64.2 127.54 63.64 127.54 62.92C127.54 62.13 127.78 61.54 128.26 61.14C128.74 60.74 129.6 60.46 130.86 60.3H130.88ZM129.53 63.6C129.75 63.8 130.07 63.9 130.47 63.9C131.08 63.9 131.59 63.72 131.99 63.37C132.39 63.02 132.6 62.58 132.6 62.05V61.07C132.25 61.25 131.7 61.39 130.94 61.5C130.66 61.54 130.46 61.57 130.33 61.6C129.95 61.67 129.66 61.8 129.47 62C129.28 62.2 129.19 62.45 129.19 62.77C129.19 63.13 129.3 63.4 129.52 63.6H129.53ZM138.71 58.23C138.975 57.8425 139.328 57.5237 139.74 57.3C140.158 57.0864 140.621 56.9767 141.09 56.98C142.08 56.98 142.78 57.2 143.2 57.65C143.62 58.1 143.83 58.89 143.83 60.01V64.97H142.17V59.85C142.17 59.38 142.05 59.01 141.8 58.76C141.55 58.51 141.2 58.38 140.75 58.38C140.13 58.38 139.64 58.56 139.29 58.92C138.94 59.28 138.76 59.79 138.76 60.44V64.97H137.1V57.17H138.7V58.22L138.71 58.23ZM149.9 56.93C150.89 56.93 151.68 57.19 152.28 57.71C152.88 58.23 153.21 58.94 153.26 59.85H151.63C151.59 59.39 151.42 59.02 151.12 58.75C150.82 58.48 150.43 58.35 149.94 58.35C149.3 58.35 148.81 58.58 148.48 59.04C148.15 59.5 147.98 60.18 147.98 61.08C147.98 61.98 148.14 62.63 148.47 63.09C148.8 63.55 149.27 63.78 149.89 63.78C150.38 63.78 150.79 63.64 151.1 63.36C151.41 63.08 151.6 62.67 151.67 62.14H153.27C153.19 63.11 152.84 63.87 152.22 64.42C151.6 64.97 150.77 65.25 149.73 65.25C148.69 65.25 147.82 64.88 147.2 64.14C146.58 63.4 146.27 62.39 146.27 61.12C146.27 59.85 146.59 58.8 147.23 58.06C147.87 57.32 148.76 56.95 149.89 56.95L149.9 56.93ZM158.84 56.93C159.95 56.93 160.81 57.29 161.45 58C162.08 58.72 162.4 59.7 162.4 60.95C162.4 61.06 162.4 61.24 162.37 61.48V61.52H156.92C156.92 62.25 157.11 62.81 157.45 63.2C157.8 63.59 158.28 63.78 158.9 63.78C159.34 63.78 159.72 63.67 160.02 63.45C160.33 63.23 160.53 62.91 160.63 62.51H162.27C162.12 63.33 161.73 63.99 161.09 64.48C160.45 64.97 159.69 65.22 158.79 65.22C157.68 65.22 156.8 64.85 156.16 64.11C155.52 63.37 155.2 62.35 155.2 61.05C155.2 59.75 155.52 58.76 156.17 58.02C156.82 57.28 157.71 56.92 158.84 56.92V56.93ZM160.66 60.33C160.66 59.7 160.5 59.21 160.17 58.86C159.84 58.51 159.39 58.33 158.79 58.33C158.19 58.33 157.79 58.5 157.47 58.84C157.15 59.18 156.96 59.68 156.91 60.33H160.65H160.66ZM174.75 54.34L178.66 64.98H176.77L175.82 62.23H171.68L170.75 64.98H168.9L172.76 54.34H174.76H174.75ZM175.33 60.75L173.75 56.13L172.17 60.75H175.34H175.33ZM183.78 56.93C184.77 56.93 185.56 57.19 186.16 57.71C186.76 58.23 187.09 58.94 187.14 59.85H185.51C185.47 59.39 185.3 59.02 185 58.75C184.7 58.48 184.31 58.35 183.82 58.35C183.18 58.35 182.69 58.58 182.36 59.04C182.03 59.5 181.86 60.18 181.86 61.08C181.86 61.98 182.02 62.63 182.35 63.09C182.68 63.55 183.15 63.78 183.77 63.78C184.26 63.78 184.67 63.64 184.98 63.36C185.29 63.08 185.48 62.67 185.55 62.14H187.15C187.07 63.11 186.72 63.87 186.1 64.42C185.48 64.97 184.65 65.25 183.61 65.25C182.57 65.25 181.7 64.88 181.08 64.14C180.46 63.4 180.15 62.39 180.15 61.12C180.15 59.85 180.47 58.8 181.11 58.06C181.75 57.32 182.64 56.95 183.77 56.95L183.78 56.93ZM183.65 39.07L187.4 28.26C188.3 25.6 189.64 22.99 188.18 22.22C188.05 22.15 187.34 22.15 187.05 22C187.13 22.04 184.74 21.37 187.65 20.09C190.23 18.96 191.79 18.51 193.37 18.2C196.3 17.53 196.51 18.77 196.51 20.4C196.51 21.23 195.08 25.21 194.11 28.07L189.93 40.26C189.16 42.83 188.54 46.13 191.8 47.74C190.06 48.81 187.73 48.98 184.94 48.58C180.4 47.93 182.66 41.98 183.65 39.07ZM192.34 60.3C192.34 60.3 192.43 60.3 192.5 60.29C193.55 60.15 194.07 59.85 194.07 59.39C194.07 59.01 193.94 58.74 193.68 58.56C193.42 58.38 193.02 58.29 192.47 58.29C191.97 58.29 191.58 58.4 191.31 58.61C191.04 58.82 190.9 59.13 190.9 59.52V59.58H189.33V59.45C189.33 58.67 189.62 58.06 190.19 57.61C190.76 57.16 191.54 56.94 192.53 56.94C193.57 56.94 194.35 57.13 194.88 57.52C195.41 57.91 195.67 58.48 195.67 59.24V63.1C195.67 63.4 195.7 63.59 195.77 63.68C195.84 63.77 195.96 63.82 196.14 63.82H196.25C196.29 63.82 196.37 63.81 196.46 63.8V65.01C196.31 65.05 196.17 65.08 196.02 65.1C195.88 65.12 195.74 65.13 195.61 65.13C195.11 65.13 194.73 65.03 194.49 64.84C194.25 64.65 194.12 64.35 194.11 63.94C193.79 64.35 193.41 64.67 192.96 64.89C192.51 65.11 192.03 65.22 191.52 65.22C190.73 65.22 190.11 65.02 189.67 64.61C189.23 64.2 189 63.64 189 62.92C189 62.13 189.24 61.54 189.72 61.14C190.2 60.74 191.06 60.46 192.32 60.3H192.34ZM190.99 63.6C191.21 63.8 191.53 63.9 191.93 63.9C192.54 63.9 193.05 63.72 193.45 63.37C193.85 63.02 194.06 62.58 194.06 62.05V61.07C193.71 61.25 193.16 61.39 192.4 61.5C192.12 61.54 191.92 61.57 191.79 61.6C191.41 61.67 191.12 61.8 190.93 62C190.74 62.2 190.65 62.45 190.65 62.77C190.65 63.13 190.76 63.4 190.98 63.6H190.99ZM201.51 56.92C202.03 56.92 202.5 57.02 202.9 57.22C203.3 57.42 203.65 57.73 203.94 58.13V54.33H205.54V64.97H203.96V63.95C203.62 64.38 203.26 64.7 202.87 64.91C202.48 65.12 202.03 65.22 201.53 65.22C200.53 65.22 199.73 64.84 199.11 64.09C198.49 63.34 198.18 62.34 198.18 61.11C198.18 59.88 198.49 58.85 199.11 58.08C199.392 57.7117 199.758 57.4155 200.177 57.2156C200.596 57.0157 201.056 56.9179 201.52 56.93L201.51 56.92ZM200.39 63.07C200.75 63.54 201.25 63.77 201.89 63.77C202.53 63.77 203.07 63.54 203.43 63.07C203.79 62.6 203.96 61.92 203.96 61.02C203.96 60.12 203.78 59.49 203.43 59.04C203.08 58.59 202.56 58.37 201.88 58.37C201.24 58.37 200.74 58.61 200.38 59.1C200.02 59.58 199.84 60.26 199.84 61.13C199.84 62 200.02 62.61 200.38 63.08L200.39 63.07ZM211.72 56.92C212.83 56.92 213.69 57.28 214.33 57.99C214.96 58.71 215.28 59.69 215.28 60.94C215.28 61.05 215.28 61.23 215.25 61.47V61.51H209.8C209.8 62.24 209.99 62.8 210.33 63.19C210.68 63.58 211.16 63.77 211.78 63.77C212.22 63.77 212.6 63.66 212.9 63.44C213.21 63.22 213.41 62.9 213.51 62.5H215.15C215 63.32 214.61 63.98 213.97 64.47C213.33 64.96 212.57 65.21 211.67 65.21C210.56 65.21 209.68 64.84 209.04 64.1C208.4 63.36 208.08 62.34 208.08 61.04C208.08 59.74 208.4 58.75 209.05 58.01C209.7 57.27 210.59 56.91 211.72 56.91V56.92ZM213.54 60.32C213.54 59.69 213.38 59.2 213.05 58.85C212.72 58.5 212.27 58.32 211.67 58.32C211.07 58.32 210.67 58.49 210.35 58.83C210.03 59.17 209.84 59.67 209.79 60.32H213.53H213.54ZM219.24 58.17C219.52 57.78 219.85 57.48 220.23 57.27C220.61 57.07 221.04 56.97 221.5 56.97C222.01 56.97 222.44 57.06 222.8 57.25C223.15 57.44 223.45 57.74 223.71 58.15C224 57.76 224.34 57.46 224.73 57.26C225.12 57.06 225.55 56.96 226.02 56.96C226.91 56.96 227.56 57.2 227.97 57.67C228.38 58.14 228.59 58.9 228.59 59.93V64.95H226.96V60.05C226.96 59.48 226.85 59.06 226.64 58.79C226.43 58.52 226.1 58.39 225.66 58.39C225.12 58.39 224.7 58.56 224.39 58.89C224.09 59.23 223.94 59.69 223.94 60.28V64.94H222.3V59.73C222.3 59.32 222.19 58.99 221.96 58.75C221.73 58.51 221.42 58.39 221.01 58.39C220.48 58.39 220.06 58.56 219.76 58.89C219.46 59.23 219.31 59.69 219.31 60.3V64.95H217.67V57.15H219.24V58.16V58.17ZM232.43 57.16L234.37 63.17L236.29 57.16H238.07L234.83 66.25C234.55 67.02 234.24 67.54 233.9 67.8C233.55 68.06 233.05 68.19 232.38 68.19C232.21 68.19 232.07 68.19 231.94 68.17C231.82 68.16 231.71 68.13 231.61 68.1V66.65C231.73 66.67 231.84 66.69 231.94 66.7C232.036 66.7113 232.133 66.718 232.23 66.72C232.54 66.72 232.77 66.67 232.94 66.56C233.11 66.45 233.24 66.27 233.32 66.01L233.54 65.36L230.61 57.16H232.43Z" fill="#231F20"/>
</svg>
