<svg width="15" height="15" viewBox="0 0 15 15" fill="none" xmlns="http://www.w3.org/2000/svg">
<g clip-path="url(#clip0_1052_2810)">
<path d="M10.3119 14.0538C9.50438 14.2662 8.57438 14.375 7.5 14.375C6.42562 14.375 5.49563 14.2662 4.68813 14.0538C4.69 11.9581 5.40063 11.25 7.5 11.25C9.59937 11.25 10.31 11.9587 10.3119 14.0538ZM7.5 5C6.50688 5 6.25 5.25688 6.25 6.25C6.25 7.24312 6.50688 7.5 7.5 7.5C8.49312 7.5 8.75 7.24312 8.75 6.25C8.75 5.25688 8.49312 5 7.5 5ZM14.375 7.5C14.375 10.6425 13.4938 12.6031 11.5487 13.5919C11.4113 11.1137 10.1469 10 7.5 10C4.85313 10 3.58875 11.1137 3.45125 13.5919C1.50687 12.6031 0.625 10.6419 0.625 7.5C0.625 2.68125 2.68125 0.625 7.5 0.625C12.3188 0.625 14.375 2.68125 14.375 7.5ZM10 6.25C10 4.56813 9.18188 3.75 7.5 3.75C5.81812 3.75 5 4.56813 5 6.25C5 7.93188 5.81812 8.75 7.5 8.75C9.18188 8.75 10 7.93188 10 6.25Z" fill="black"/>
</g>
<defs>
<clipPath id="clip0_1052_2810">
<rect width="15" height="15" fill="white"/>
</clipPath>
</defs>
</svg>
