<svg width="13" height="13" viewBox="0 0 13 13" fill="none" xmlns="http://www.w3.org/2000/svg">
<g clip-path="url(#clip0_1052_2812)">
<path d="M13 3.79167V4.33333H0V3.79167C0 2.29613 1.21279 1.08333 2.70833 1.08333H3.25V0.541667C3.25 0.242667 3.49267 0 3.79167 0C4.09067 0 4.33333 0.242667 4.33333 0.541667V1.08333H8.66667V0.541667C8.66667 0.242667 8.90933 0 9.20833 0C9.50733 0 9.75 0.242667 9.75 0.541667V1.08333H10.2917C11.7872 1.08333 13 2.29613 13 3.79167ZM13 9.20833C13 11.2992 11.2986 13 9.20833 13C7.11804 13 5.41667 11.2992 5.41667 9.20833C5.41667 7.1175 7.11804 5.41667 9.20833 5.41667C11.2986 5.41667 13 7.1175 13 9.20833ZM10.2917 9.52575L9.75 8.98408V8.125C9.75 7.826 9.50733 7.58333 9.20833 7.58333C8.90933 7.58333 8.66667 7.826 8.66667 8.125V9.20833C8.66667 9.35188 8.72354 9.49 8.82537 9.59129L9.52575 10.2917C9.737 10.5029 10.0804 10.5029 10.2917 10.2917C10.5029 10.0804 10.5029 9.737 10.2917 9.52575ZM4.33333 9.20833C4.33333 7.67596 5.04183 6.31042 6.14738 5.41667H0V10.2917C0 11.7872 1.21279 13 2.70833 13H6.14738C5.04183 12.1063 4.33333 10.7407 4.33333 9.20833Z" fill="black"/>
</g>
<defs>
<clipPath id="clip0_1052_2812">
<rect width="13" height="13" fill="white"/>
</clipPath>
</defs>
</svg>
